<svg width="506" height="506" viewBox="0 0 506 506" fill="none" xmlns="http://www.w3.org/2000/svg">
<path d="M225.336 214.4C234.978 214.4 243.298 216.277 250.296 220.032C257.378 223.787 262.84 229.035 266.68 235.776C270.605 242.517 272.568 250.325 272.568 259.2C272.568 267.989 270.605 275.755 266.68 282.496C262.84 289.237 257.378 294.528 250.296 298.368C243.298 302.123 234.978 304 225.336 304H188.728V214.4H225.336ZM223.928 285.312C232.034 285.312 238.392 282.965 243 278.272C247.608 273.579 249.912 267.221 249.912 259.2C249.912 251.093 247.608 244.736 243 240.128C238.392 235.435 232.034 233.088 223.928 233.088H211V285.312H223.928ZM319.068 304L317.66 296.064C315.356 298.709 312.966 300.843 310.492 302.464C308.102 304.085 304.86 304.896 300.764 304.896C297.009 304.896 293.553 304.213 290.396 302.848C287.324 301.397 284.849 299.307 282.972 296.576C281.094 293.845 280.156 290.517 280.156 286.592C280.156 281.301 282.033 276.949 285.788 273.536C289.542 270.123 295.473 267.947 303.58 267.008L317.66 265.472V261.76C317.66 260.565 317.062 259.371 315.868 258.176C314.673 256.896 312.838 256.256 310.364 256.256C308.145 256.256 306.225 256.853 304.604 258.048C302.982 259.243 301.873 260.907 301.276 263.04L283.484 256.64C285.446 250.837 288.774 246.485 293.468 243.584C298.161 240.597 304.049 239.104 311.132 239.104C320.092 239.104 326.918 241.323 331.612 245.76C336.305 250.197 338.652 256.299 338.652 264.064V304H319.068ZM317.66 277.248L307.676 278.4C305.713 278.656 304.22 279.296 303.196 280.32C302.172 281.344 301.66 282.581 301.66 284.032C301.66 285.483 302.257 286.677 303.452 287.616C304.732 288.555 306.481 289.024 308.7 289.024C310.492 289.024 312.028 288.64 313.308 287.872C314.673 287.019 315.74 285.824 316.508 284.288C317.276 282.752 317.66 280.832 317.66 278.528V277.248ZM367.481 282.752C367.822 284.032 368.334 285.099 369.017 285.952C369.699 286.72 370.595 287.317 371.705 287.744C372.814 288.171 374.094 288.384 375.545 288.384C377.763 288.384 379.47 288 380.665 287.232C381.945 286.464 382.585 285.483 382.585 284.288C382.585 283.093 382.073 282.197 381.049 281.6C380.11 280.917 378.873 280.363 377.337 279.936C375.801 279.509 374.179 279.125 372.473 278.784C370.339 278.357 367.95 277.803 365.305 277.12C362.659 276.437 360.099 275.456 357.625 274.176C355.235 272.811 353.23 270.976 351.609 268.672C350.073 266.368 349.305 263.424 349.305 259.84C349.305 255.915 350.329 252.416 352.377 249.344C354.425 246.187 357.411 243.712 361.337 241.92C365.347 240.043 370.254 239.104 376.057 239.104C383.139 239.104 388.771 240.555 392.953 243.456C397.134 246.357 400.035 250.368 401.657 255.488L383.481 259.584C383.225 258.56 382.713 257.792 381.944 257.28C381.262 256.683 380.409 256.256 379.385 256C378.361 255.744 377.337 255.616 376.312 255.616C374.35 255.616 372.899 256 371.961 256.768C371.022 257.451 370.553 258.261 370.553 259.2C370.553 259.968 370.809 260.608 371.321 261.12C371.833 261.547 372.515 261.888 373.369 262.144C374.307 262.4 375.374 262.656 376.569 262.912C377.849 263.083 379.171 263.339 380.537 263.68C383.097 264.277 385.699 265.003 388.345 265.856C391.075 266.624 393.593 267.733 395.897 269.184C398.286 270.635 400.206 272.555 401.657 274.944C403.107 277.333 403.875 280.448 403.961 284.288C403.961 288.128 402.894 291.627 400.761 294.784C398.627 297.856 395.47 300.331 391.289 302.208C387.193 304 382.073 304.896 375.929 304.896C368.419 304.896 362.19 303.403 357.241 300.416C352.377 297.344 349.347 292.821 348.153 286.848L367.481 282.752ZM414.088 211.84H435.08V247.168C436.957 244.864 439.261 242.944 441.992 241.408C444.808 239.872 448.05 239.104 451.72 239.104C456.669 239.104 460.936 240.213 464.52 242.432C468.104 244.565 470.834 247.68 472.712 251.776C474.674 255.872 475.656 260.821 475.656 266.624V304H453.384V269.184C453.384 265.515 452.616 262.741 451.08 260.864C449.544 258.901 447.282 257.92 444.296 257.92C441.224 257.92 438.92 259.115 437.384 261.504C435.848 263.893 435.08 266.965 435.08 270.72V304H414.088V211.84Z" fill="#38BDF8"/>
<path d="M152 277H178.561V295.561C178.561 299.979 174.979 303.561 170.561 303.561H152V277Z" fill="#38BDF8"/>
<rect x="121" y="277" width="26.561" height="26.561" fill="#38BDF8"/>
<path d="M85 304H30C25.5817 304 22 300.418 22 296V285C22 280.582 25.5817 277 30 277H85V304ZM116 304H90V277H116V304Z" fill="#38BDF8"/>
<path d="M85 272.56H58.1201C57.5678 272.56 57.1201 272.112 57.1201 271.56V254C57.1201 249.582 60.7018 246 65.1201 246H85V272.56ZM116.12 272.56H90V246H116.12V272.56Z" fill="#38BDF8"/>
<rect x="121" y="246" width="26.561" height="26.561" fill="#38BDF8"/>
<rect x="152.439" y="246.049" width="26.561" height="26.561" fill="#38BDF8"/>
<path d="M90 223C90 218.582 93.5817 215 98 215H171C175.418 215 179 218.582 179 223V241H90V223Z" fill="#38BDF8"/>
</svg>
