<svg width="454" height="94" viewBox="0 0 454 94" fill="none" xmlns="http://www.w3.org/2000/svg">
<path d="M203.336 2.56C212.978 2.56 221.298 4.437 228.296 8.192C235.378 11.947 240.84 17.195 244.68 23.936C248.605 30.677 250.568 38.485 250.568 47.36C250.568 56.149 248.605 63.915 244.68 70.656C240.84 77.397 235.378 82.688 228.296 86.528C221.298 90.283 212.978 92.16 203.336 92.16H166.728V2.56H203.336ZM201.928 73.472C210.034 73.472 216.392 71.125 221 66.432C225.608 61.739 227.912 55.381 227.912 47.36C227.912 39.253 225.608 32.896 221 28.288C216.392 23.595 210.034 21.248 201.928 21.248H189V73.472H201.928ZM297.068 92.16L295.66 84.224C293.356 86.869 290.966 89.003 288.492 90.624C286.102 92.245 282.86 93.056 278.764 93.056C275.009 93.056 271.553 92.373 268.396 91.008C265.324 89.557 262.849 87.467 260.972 84.736C259.094 82.005 258.156 78.677 258.156 74.752C258.156 69.461 260.033 65.109 263.788 61.696C267.542 58.283 273.473 56.107 281.58 55.168L295.66 53.632V49.92C295.66 48.725 295.062 47.531 293.868 46.336C292.673 45.056 290.838 44.416 288.364 44.416C286.145 44.416 284.225 45.013 282.604 46.208C280.982 47.403 279.873 49.067 279.276 51.2L261.484 44.8C263.446 38.997 266.774 34.645 271.468 31.744C276.161 28.757 282.049 27.264 289.132 27.264C298.092 27.264 304.918 29.483 309.612 33.92C314.305 38.357 316.652 44.459 316.652 52.224V92.16H297.068ZM295.66 65.408L285.676 66.56C283.713 66.816 282.22 67.456 281.196 68.48C280.172 69.504 279.66 70.741 279.66 72.192C279.66 73.643 280.257 74.837 281.452 75.776C282.732 76.715 284.481 77.184 286.7 77.184C288.492 77.184 290.028 76.8 291.308 76.032C292.673 75.179 293.74 73.984 294.508 72.448C295.276 70.912 295.66 68.992 295.66 66.688V65.408ZM345.481 70.912C345.822 72.192 346.334 73.259 347.017 74.112C347.699 74.88 348.595 75.477 349.705 75.904C350.814 76.331 352.094 76.544 353.545 76.544C355.763 76.544 357.47 76.16 358.665 75.392C359.945 74.624 360.585 73.643 360.585 72.448C360.585 71.253 360.073 70.357 359.049 69.76C358.11 69.077 356.873 68.523 355.337 68.096C353.801 67.669 352.179 67.285 350.473 66.944C348.339 66.517 345.95 65.963 343.305 65.28C340.659 64.597 338.099 63.616 335.625 62.336C333.235 60.971 331.23 59.136 329.609 56.832C328.073 54.528 327.305 51.584 327.305 48C327.305 44.075 328.329 40.576 330.377 37.504C332.425 34.347 335.411 31.872 339.337 30.08C343.347 28.203 348.254 27.264 354.057 27.264C361.139 27.264 366.771 28.715 370.953 31.616C375.134 34.517 378.035 38.528 379.657 43.648L361.481 47.744C361.225 46.72 360.713 45.952 359.944 45.44C359.262 44.843 358.409 44.416 357.385 44.16C356.361 43.904 355.337 43.776 354.312 43.776C352.35 43.776 350.899 44.16 349.961 44.928C349.022 45.611 348.553 46.421 348.553 47.36C348.553 48.128 348.809 48.768 349.321 49.28C349.833 49.707 350.515 50.048 351.369 50.304C352.307 50.56 353.374 50.816 354.569 51.072C355.849 51.243 357.171 51.499 358.537 51.84C361.097 52.437 363.699 53.163 366.345 54.016C369.075 54.784 371.593 55.893 373.897 57.344C376.286 58.795 378.206 60.715 379.657 63.104C381.107 65.493 381.875 68.608 381.961 72.448C381.961 76.288 380.894 79.787 378.761 82.944C376.627 86.016 373.47 88.491 369.289 90.368C365.193 92.16 360.073 93.056 353.929 93.056C346.419 93.056 340.19 91.563 335.241 88.576C330.377 85.504 327.347 80.981 326.153 75.008L345.481 70.912ZM392.088 0H413.08V35.328C414.957 33.024 417.261 31.104 419.992 29.568C422.808 28.032 426.05 27.264 429.72 27.264C434.669 27.264 438.936 28.373 442.52 30.592C446.104 32.725 448.834 35.84 450.712 39.936C452.674 44.032 453.656 48.981 453.656 54.784V92.16H431.384V57.344C431.384 53.675 430.616 50.901 429.08 49.024C427.544 47.061 425.282 46.08 422.296 46.08C419.224 46.08 416.92 47.275 415.384 49.664C413.848 52.053 413.08 55.125 413.08 58.88V92.16H392.088V0Z" fill="#38BDF8"/>
<path d="M130 65.16H156.561V83.721C156.561 88.139 152.979 91.721 148.561 91.721H130V65.16Z" fill="#38BDF8"/>
<path d="M125.561 65.16H99V91.721H125.561V65.16Z" fill="#38BDF8"/>
<path d="M63 92.16H8C3.5817 92.16 0 88.578 0 84.16V73.16C0 68.742 3.5817 65.16 8 65.16H63V92.16ZM94 92.16H68V65.16H94V92.16Z" fill="#38BDF8"/>
<path d="M63 60.72H36.1201C35.5678 60.72 35.1201 60.272 35.1201 59.72V42.16C35.1201 37.742 38.7018 34.16 43.1201 34.16H63V60.72ZM94.12 60.72H68V34.16H94.12V60.72Z" fill="#38BDF8"/>
<path d="M125.561 34.16H99V60.721H125.561V34.16Z" fill="#38BDF8"/>
<path d="M157 34.209H130.439V60.77H157V34.209Z" fill="#38BDF8"/>
<path d="M68 11.16C68 6.742 71.5817 3.16 76 3.16H149C153.418 3.16 157 6.742 157 11.16V29.16H68V11.16Z" fill="#38BDF8"/>
</svg>
